<mxfile host="65bd71144e">
    <diagram id="C91cKKwiNIsFAHS6rGZc" name="Page-1">
        <mxGraphModel dx="3433" dy="822" grid="1" gridSize="10" guides="1" tooltips="1" connect="1" arrows="1" fold="1" page="0" pageScale="1" pageWidth="850" pageHeight="1100" background="#000000" math="0" shadow="0">
            <root>
                <mxCell id="0"/>
                <mxCell id="1" parent="0"/>
                <mxCell id="363" value="&lt;span&gt;Models&lt;/span&gt;" style="rounded=0;whiteSpace=wrap;html=1;fillColor=none;labelPosition=center;verticalLabelPosition=middle;align=center;verticalAlign=top;fontStyle=4" parent="1" vertex="1">
                    <mxGeometry x="-560" y="279.65" width="160" height="179.92" as="geometry"/>
                </mxCell>
                <mxCell id="359" value="MotionPlanner" style="rounded=0;whiteSpace=wrap;html=1;dashed=1;fillColor=none;labelPosition=center;verticalLabelPosition=top;align=center;verticalAlign=bottom;fontStyle=2" parent="1" vertex="1">
                    <mxGeometry x="640" y="520.63" width="160" height="80" as="geometry"/>
                </mxCell>
                <mxCell id="201" value="Deliberator" style="rounded=0;whiteSpace=wrap;html=1;dashed=1;fillColor=none;labelPosition=center;verticalLabelPosition=top;align=center;verticalAlign=bottom;fontStyle=2" parent="1" vertex="1">
                    <mxGeometry x="280" y="120" width="160" height="140" as="geometry"/>
                </mxCell>
                <mxCell id="161" value="Localiser" style="rounded=0;whiteSpace=wrap;html=1;dashed=1;fillColor=none;labelPosition=center;verticalLabelPosition=top;align=center;verticalAlign=bottom;fontStyle=2" parent="1" vertex="1">
                    <mxGeometry x="280" y="520.6299999999999" width="160" height="80.46" as="geometry"/>
                </mxCell>
                <mxCell id="95" style="edgeStyle=orthogonalEdgeStyle;rounded=0;orthogonalLoop=1;jettySize=auto;html=1;" parent="1" source="98" edge="1">
                    <mxGeometry relative="1" as="geometry">
                        <mxPoint x="-700" y="760" as="targetPoint"/>
                        <Array as="points">
                            <mxPoint x="-700" y="740"/>
                            <mxPoint x="-700" y="740"/>
                        </Array>
                    </mxGeometry>
                </mxCell>
                <mxCell id="96" value="setPosition&lt;br&gt;setVelocity" style="edgeLabel;html=1;align=center;verticalAlign=middle;resizable=0;points=[];labelBackgroundColor=none;fontColor=#00FF00;" parent="95" vertex="1" connectable="0">
                    <mxGeometry x="-0.2028" y="-1" relative="1" as="geometry">
                        <mxPoint x="31" y="-12" as="offset"/>
                    </mxGeometry>
                </mxCell>
                <mxCell id="98" value="MotorController" style="rounded=0;whiteSpace=wrap;html=1;fontColor=#99FFFF;" parent="1" vertex="1">
                    <mxGeometry x="-780" y="640.42" width="120" height="40" as="geometry"/>
                </mxCell>
                <mxCell id="117" value="&lt;b&gt;Environment&lt;/b&gt;" style="rounded=0;whiteSpace=wrap;html=1;" parent="1" vertex="1">
                    <mxGeometry x="-1360" y="760" width="720" height="40" as="geometry"/>
                </mxCell>
                <mxCell id="123" style="edgeStyle=orthogonalEdgeStyle;rounded=0;orthogonalLoop=1;jettySize=auto;html=1;" parent="1" source="126" edge="1">
                    <mxGeometry relative="1" as="geometry">
                        <mxPoint x="-719.9999999999995" y="520.42" as="targetPoint"/>
                    </mxGeometry>
                </mxCell>
                <mxCell id="124" value="angle&lt;br&gt;distance&lt;br&gt;linearVelocity&lt;br&gt;angularVelocity" style="edgeLabel;html=1;align=center;verticalAlign=middle;resizable=0;points=[];labelBackgroundColor=none;" parent="123" vertex="1" connectable="0">
                    <mxGeometry x="-0.72" y="1" relative="1" as="geometry">
                        <mxPoint x="39" y="28" as="offset"/>
                    </mxGeometry>
                </mxCell>
                <mxCell id="126" value="DeadReckoning" style="rounded=0;whiteSpace=wrap;html=1;fontStyle=0;fontColor=#99FFFF;" parent="1" vertex="1">
                    <mxGeometry x="-780" y="400.76000000000005" width="120" height="40" as="geometry"/>
                </mxCell>
                <mxCell id="152" style="edgeStyle=orthogonalEdgeStyle;rounded=0;orthogonalLoop=1;jettySize=auto;html=1;" parent="1" source="150" target="136" edge="1">
                    <mxGeometry relative="1" as="geometry">
                        <mxPoint x="-890" y="250.24999999999997" as="sourcePoint"/>
                        <Array as="points">
                            <mxPoint x="-820" y="330.42"/>
                            <mxPoint x="-820" y="300.42"/>
                        </Array>
                    </mxGeometry>
                </mxCell>
                <mxCell id="156" value="graph" style="edgeLabel;html=1;align=center;verticalAlign=middle;resizable=0;points=[];labelBackgroundColor=none;" parent="152" vertex="1" connectable="0">
                    <mxGeometry x="-0.35" relative="1" as="geometry">
                        <mxPoint x="4" y="10" as="offset"/>
                    </mxGeometry>
                </mxCell>
                <mxCell id="129" value="User" style="rounded=0;whiteSpace=wrap;html=1;labelBackgroundColor=none;fontStyle=1" parent="1" vertex="1">
                    <mxGeometry x="-1360" y="60" width="720" height="40" as="geometry"/>
                </mxCell>
                <mxCell id="137" style="edgeStyle=orthogonalEdgeStyle;rounded=0;orthogonalLoop=1;jettySize=auto;html=1;" parent="1" source="136" target="126" edge="1">
                    <mxGeometry relative="1" as="geometry"/>
                </mxCell>
                <mxCell id="138" value="motion" style="edgeLabel;html=1;align=center;verticalAlign=middle;resizable=0;points=[];labelBackgroundColor=none;" parent="137" vertex="1" connectable="0">
                    <mxGeometry x="-0.2993" y="-1" relative="1" as="geometry">
                        <mxPoint x="21" y="12" as="offset"/>
                    </mxGeometry>
                </mxCell>
                <mxCell id="136" value="FloodFill" style="rounded=0;whiteSpace=wrap;html=1;fontStyle=0;fontColor=#B266FF;" parent="1" vertex="1">
                    <mxGeometry x="-780" y="280.24999999999994" width="120" height="40" as="geometry"/>
                </mxCell>
                <mxCell id="186" style="edgeStyle=orthogonalEdgeStyle;rounded=0;orthogonalLoop=1;jettySize=auto;html=1;fontSize=11;" parent="1" source="148" target="136" edge="1">
                    <mxGeometry relative="1" as="geometry"/>
                </mxCell>
                <mxCell id="187" value="currentPose&lt;br&gt;currentHeading" style="edgeLabel;html=1;align=center;verticalAlign=middle;resizable=0;points=[];fontSize=11;labelBackgroundColor=none;" parent="186" vertex="1" connectable="0">
                    <mxGeometry x="-0.4689" y="2" relative="1" as="geometry">
                        <mxPoint x="18" y="-18" as="offset"/>
                    </mxGeometry>
                </mxCell>
                <mxCell id="148" value="Localisation" style="rounded=0;whiteSpace=wrap;html=1;dashed=1;fontStyle=2" parent="1" vertex="1">
                    <mxGeometry x="-980" y="250.42000000000004" width="120" height="40" as="geometry"/>
                </mxCell>
                <mxCell id="149" value="&lt;font color=&quot;#99ffff&quot;&gt;HCLocaliser&lt;/font&gt;" style="rounded=0;whiteSpace=wrap;html=1;" parent="1" vertex="1">
                    <mxGeometry x="300" y="540.6299999999998" width="120" height="40" as="geometry"/>
                </mxCell>
                <mxCell id="150" value="Mapping" style="rounded=0;whiteSpace=wrap;html=1;dashed=1;fontStyle=2" parent="1" vertex="1">
                    <mxGeometry x="-980" y="310.42" width="120" height="40" as="geometry"/>
                </mxCell>
                <mxCell id="158" value="RSA (Integration)" style="text;html=1;align=center;verticalAlign=middle;resizable=0;points=[];autosize=1;strokeColor=none;fontSize=24;fontStyle=1" parent="1" vertex="1">
                    <mxGeometry x="-1600" y="50" width="210" height="30" as="geometry"/>
                </mxCell>
                <mxCell id="160" value="&lt;font color=&quot;#99ffff&quot;&gt;ePuck&lt;/font&gt;" style="rounded=0;whiteSpace=wrap;html=1;" parent="1" vertex="1">
                    <mxGeometry x="-540" y="399.7399999999998" width="120" height="40" as="geometry"/>
                </mxCell>
                <mxCell id="162" value="PathPlanner" style="rounded=0;whiteSpace=wrap;html=1;dashed=1;fillColor=none;labelPosition=center;verticalLabelPosition=top;align=center;verticalAlign=bottom;fontStyle=2" parent="1" vertex="1">
                    <mxGeometry x="640" y="120.51" width="160" height="139.49" as="geometry"/>
                </mxCell>
                <mxCell id="163" value="BFSDFS" style="rounded=0;whiteSpace=wrap;html=1;fontColor=#B266FF;" parent="1" vertex="1">
                    <mxGeometry x="660" y="140.84999999999985" width="120" height="40" as="geometry"/>
                </mxCell>
                <mxCell id="164" value="FloodFill" style="rounded=0;whiteSpace=wrap;html=1;fontColor=#B266FF;" parent="1" vertex="1">
                    <mxGeometry x="660" y="200.50999999999985" width="120" height="40" as="geometry"/>
                </mxCell>
                <mxCell id="174" value="CVProcessor" style="rounded=0;whiteSpace=wrap;html=1;fontColor=#66FF66;" parent="1" vertex="1">
                    <mxGeometry x="300" y="340.0499999999999" width="120" height="40" as="geometry"/>
                </mxCell>
                <mxCell id="175" value="TrajectoryPlanner" style="rounded=0;whiteSpace=wrap;html=1;dashed=1;fillColor=none;labelPosition=center;verticalLabelPosition=top;align=center;verticalAlign=bottom;fontStyle=2" parent="1" vertex="1">
                    <mxGeometry x="640" y="399.78" width="160" height="80.43" as="geometry"/>
                </mxCell>
                <mxCell id="176" value="DeadReckoning" style="rounded=0;whiteSpace=wrap;html=1;fontColor=#99FFFF;" parent="1" vertex="1">
                    <mxGeometry x="660" y="419.7799999999999" width="120" height="40" as="geometry"/>
                </mxCell>
                <mxCell id="178" value="SimpleTeleoperation" style="rounded=0;whiteSpace=wrap;html=1;fillColor=#a20025;strokeColor=#6F0000;fontColor=#ffffff;" parent="1" vertex="1">
                    <mxGeometry x="300" y="200.0799999999998" width="120" height="40" as="geometry"/>
                </mxCell>
                <mxCell id="197" style="edgeStyle=orthogonalEdgeStyle;rounded=0;orthogonalLoop=1;jettySize=auto;html=1;fontSize=11;" parent="1" edge="1">
                    <mxGeometry relative="1" as="geometry">
                        <mxPoint x="-340" y="339" as="targetPoint"/>
                        <mxPoint x="-420" y="339.00235294117647" as="sourcePoint"/>
                        <Array as="points">
                            <mxPoint x="-385" y="338.83"/>
                            <mxPoint x="-350" y="339.83"/>
                        </Array>
                    </mxGeometry>
                </mxCell>
                <mxCell id="228" value="cellWidth" style="edgeLabel;html=1;align=center;verticalAlign=middle;resizable=0;points=[];fontSize=11;labelBackgroundColor=none;" parent="197" vertex="1" connectable="0">
                    <mxGeometry x="-0.2477" y="2" relative="1" as="geometry">
                        <mxPoint x="20" y="-8" as="offset"/>
                    </mxGeometry>
                </mxCell>
                <mxCell id="182" value="&lt;font color=&quot;#99ffff&quot;&gt;maze&lt;/font&gt;" style="rounded=0;whiteSpace=wrap;html=1;" parent="1" vertex="1">
                    <mxGeometry x="-540" y="319.8199999999999" width="120" height="40" as="geometry"/>
                </mxCell>
                <mxCell id="184" value="&lt;font&gt;Grapher&lt;/font&gt;" style="rounded=0;whiteSpace=wrap;html=1;fontColor=#B266FF;" parent="1" vertex="1">
                    <mxGeometry x="300" y="438.95999999999964" width="120" height="40" as="geometry"/>
                </mxCell>
                <mxCell id="199" style="edgeStyle=orthogonalEdgeStyle;rounded=0;orthogonalLoop=1;jettySize=auto;html=1;fontSize=11;" parent="1" edge="1">
                    <mxGeometry relative="1" as="geometry">
                        <mxPoint x="-340" y="419.6099999999999" as="targetPoint"/>
                        <mxPoint x="-420" y="419.40999999999985" as="sourcePoint"/>
                        <Array as="points">
                            <mxPoint x="-360" y="419.6099999999999"/>
                            <mxPoint x="-360" y="419.6099999999999"/>
                        </Array>
                    </mxGeometry>
                </mxCell>
                <mxCell id="211" value="wheelRadius&lt;br&gt;axleLength&lt;br&gt;maxSpeed&lt;br&gt;maxMotorSpeed" style="edgeLabel;html=1;align=center;verticalAlign=middle;resizable=0;points=[];fontSize=11;labelBackgroundColor=none;" parent="199" vertex="1" connectable="0">
                    <mxGeometry x="0.7111" y="1" relative="1" as="geometry">
                        <mxPoint x="-9" y="-29" as="offset"/>
                    </mxGeometry>
                </mxCell>
                <mxCell id="208" style="edgeStyle=orthogonalEdgeStyle;rounded=0;orthogonalLoop=1;jettySize=auto;html=1;fontSize=11;startArrow=none;startFill=0;endArrow=classic;endFill=1;" parent="1" source="204" target="136" edge="1">
                    <mxGeometry relative="1" as="geometry"/>
                </mxCell>
                <mxCell id="209" value="motionSequence" style="edgeLabel;html=1;align=center;verticalAlign=middle;resizable=0;points=[];fontSize=11;labelBackgroundColor=none;" parent="208" vertex="1" connectable="0">
                    <mxGeometry x="-0.2402" relative="1" as="geometry">
                        <mxPoint x="50" as="offset"/>
                    </mxGeometry>
                </mxCell>
                <mxCell id="204" value="Deliberator" style="rounded=0;whiteSpace=wrap;html=1;dashed=1;fontStyle=2" parent="1" vertex="1">
                    <mxGeometry x="-780" y="160.07999999999996" width="120" height="40" as="geometry"/>
                </mxCell>
                <mxCell id="214" style="edgeStyle=orthogonalEdgeStyle;rounded=0;orthogonalLoop=1;jettySize=auto;html=1;fontSize=11;startArrow=classic;startFill=1;endArrow=none;endFill=0;" parent="1" edge="1">
                    <mxGeometry relative="1" as="geometry">
                        <mxPoint x="220" y="459.46999999999986" as="targetPoint"/>
                        <mxPoint x="300" y="459.46999999999986" as="sourcePoint"/>
                    </mxGeometry>
                </mxCell>
                <mxCell id="254" value="map" style="edgeLabel;html=1;align=center;verticalAlign=middle;resizable=0;points=[];fontSize=11;labelBackgroundColor=none;fontColor=#F0F0F0;" parent="214" vertex="1" connectable="0">
                    <mxGeometry x="0.2914" relative="1" as="geometry">
                        <mxPoint x="12" y="-15" as="offset"/>
                    </mxGeometry>
                </mxCell>
                <mxCell id="215" style="edgeStyle=orthogonalEdgeStyle;rounded=0;orthogonalLoop=1;jettySize=auto;html=1;fontSize=11;" parent="1" edge="1">
                    <mxGeometry relative="1" as="geometry">
                        <mxPoint x="500" y="459.46999999999986" as="targetPoint"/>
                        <mxPoint x="420" y="459.46999999999986" as="sourcePoint"/>
                    </mxGeometry>
                </mxCell>
                <mxCell id="245" value="graph" style="edgeLabel;html=1;align=center;verticalAlign=middle;resizable=0;points=[];fontSize=11;labelBackgroundColor=none;" parent="215" vertex="1" connectable="0">
                    <mxGeometry x="-0.3164" y="1" relative="1" as="geometry">
                        <mxPoint x="13" y="-14" as="offset"/>
                    </mxGeometry>
                </mxCell>
                <mxCell id="216" style="edgeStyle=orthogonalEdgeStyle;rounded=0;orthogonalLoop=1;jettySize=auto;html=1;fontSize=11;startArrow=classic;startFill=1;endArrow=none;endFill=0;" parent="1" edge="1">
                    <mxGeometry relative="1" as="geometry">
                        <mxPoint x="200" y="359.88" as="targetPoint"/>
                        <mxPoint x="280" y="359.88" as="sourcePoint"/>
                    </mxGeometry>
                </mxCell>
                <mxCell id="257" value="image" style="edgeLabel;html=1;align=center;verticalAlign=middle;resizable=0;points=[];fontSize=11;labelBackgroundColor=none;fontColor=#F0F0F0;" parent="216" vertex="1" connectable="0">
                    <mxGeometry x="0.2415" y="-2" relative="1" as="geometry">
                        <mxPoint x="-5" y="-8" as="offset"/>
                    </mxGeometry>
                </mxCell>
                <mxCell id="217" style="edgeStyle=orthogonalEdgeStyle;rounded=0;orthogonalLoop=1;jettySize=auto;html=1;fontSize=11;" parent="1" edge="1">
                    <mxGeometry relative="1" as="geometry">
                        <mxPoint x="520" y="560.1299999999998" as="targetPoint"/>
                        <mxPoint x="440" y="560.1299999999998" as="sourcePoint"/>
                    </mxGeometry>
                </mxCell>
                <mxCell id="234" value="currentPose&lt;br&gt;currentHeading" style="edgeLabel;html=1;align=center;verticalAlign=middle;resizable=0;points=[];fontSize=11;labelBackgroundColor=none;" parent="217" vertex="1" connectable="0">
                    <mxGeometry x="0.2352" y="3" relative="1" as="geometry">
                        <mxPoint x="1" y="-17" as="offset"/>
                    </mxGeometry>
                </mxCell>
                <mxCell id="218" style="edgeStyle=orthogonalEdgeStyle;rounded=0;orthogonalLoop=1;jettySize=auto;html=1;fontSize=11;startArrow=classic;startFill=1;endArrow=none;endFill=0;" parent="1" edge="1">
                    <mxGeometry relative="1" as="geometry">
                        <mxPoint x="580" y="159.79999999999995" as="targetPoint"/>
                        <mxPoint x="660" y="159.79999999999995" as="sourcePoint"/>
                    </mxGeometry>
                </mxCell>
                <mxCell id="230" value="graph&lt;br&gt;initialPose&lt;br&gt;initialHeading&lt;br&gt;destination" style="edgeLabel;html=1;align=center;verticalAlign=middle;resizable=0;points=[];fontSize=11;labelBackgroundColor=none;" parent="218" vertex="1" connectable="0">
                    <mxGeometry x="-0.2494" y="-3" relative="1" as="geometry">
                        <mxPoint x="-30" y="-27" as="offset"/>
                    </mxGeometry>
                </mxCell>
                <mxCell id="219" style="edgeStyle=orthogonalEdgeStyle;rounded=0;orthogonalLoop=1;jettySize=auto;html=1;fontSize=11;" parent="1" edge="1">
                    <mxGeometry relative="1" as="geometry">
                        <mxPoint x="880" y="190.09000000000003" as="targetPoint"/>
                        <mxPoint x="800" y="190.09000000000003" as="sourcePoint"/>
                    </mxGeometry>
                </mxCell>
                <mxCell id="229" value="pathSequence" style="edgeLabel;html=1;align=center;verticalAlign=middle;resizable=0;points=[];fontSize=11;labelBackgroundColor=none;" parent="219" vertex="1" connectable="0">
                    <mxGeometry x="0.2045" y="2" relative="1" as="geometry">
                        <mxPoint x="-8" y="-9" as="offset"/>
                    </mxGeometry>
                </mxCell>
                <mxCell id="220" style="edgeStyle=orthogonalEdgeStyle;rounded=0;orthogonalLoop=1;jettySize=auto;html=1;fontSize=11;startArrow=classic;startFill=1;endArrow=none;endFill=0;" parent="1" edge="1">
                    <mxGeometry relative="1" as="geometry">
                        <mxPoint x="560" y="440.75999999999993" as="targetPoint"/>
                        <mxPoint x="640" y="440.75999999999993" as="sourcePoint"/>
                    </mxGeometry>
                </mxCell>
                <mxCell id="227" value="motion" style="edgeLabel;html=1;align=center;verticalAlign=middle;resizable=0;points=[];fontSize=11;labelBackgroundColor=none;" parent="220" vertex="1" connectable="0">
                    <mxGeometry x="0.3148" relative="1" as="geometry">
                        <mxPoint x="3" y="-14" as="offset"/>
                    </mxGeometry>
                </mxCell>
                <mxCell id="221" style="edgeStyle=orthogonalEdgeStyle;rounded=0;orthogonalLoop=1;jettySize=auto;html=1;fontSize=11;labelBackgroundColor=none;" parent="1" edge="1">
                    <mxGeometry relative="1" as="geometry">
                        <mxPoint x="880" y="440.75999999999993" as="targetPoint"/>
                        <mxPoint x="800" y="440.75999999999993" as="sourcePoint"/>
                    </mxGeometry>
                </mxCell>
                <mxCell id="226" value="angle&lt;br&gt;distance&lt;br&gt;linearVelocity&lt;br&gt;angularVelocity" style="edgeLabel;html=1;align=center;verticalAlign=middle;resizable=0;points=[];fontSize=11;labelBackgroundColor=none;" parent="221" vertex="1" connectable="0">
                    <mxGeometry x="0.328" y="3" relative="1" as="geometry">
                        <mxPoint x="-13" y="-30" as="offset"/>
                    </mxGeometry>
                </mxCell>
                <mxCell id="223" style="edgeStyle=orthogonalEdgeStyle;rounded=0;orthogonalLoop=1;jettySize=auto;html=1;fontSize=11;" parent="1" edge="1">
                    <mxGeometry relative="1" as="geometry">
                        <mxPoint x="880" y="559.9899999999998" as="targetPoint"/>
                        <mxPoint x="800" y="559.9899999999998" as="sourcePoint"/>
                        <Array as="points">
                            <mxPoint x="830" y="560.42"/>
                            <mxPoint x="830" y="560.42"/>
                        </Array>
                    </mxGeometry>
                </mxCell>
                <mxCell id="231" value="LRmotorPosition&lt;br&gt;LRmotorVelocity" style="edgeLabel;html=1;align=center;verticalAlign=middle;resizable=0;points=[];fontSize=11;labelBackgroundColor=none;" parent="223" vertex="1" connectable="0">
                    <mxGeometry x="-0.2817" y="-2" relative="1" as="geometry">
                        <mxPoint x="21" y="-22" as="offset"/>
                    </mxGeometry>
                </mxCell>
                <mxCell id="235" style="edgeStyle=orthogonalEdgeStyle;rounded=0;orthogonalLoop=1;jettySize=auto;html=1;fontSize=11;startArrow=classic;startFill=1;endArrow=none;endFill=0;" parent="1" edge="1">
                    <mxGeometry relative="1" as="geometry">
                        <mxPoint x="220" y="560.2899999999998" as="targetPoint"/>
                        <mxPoint x="300" y="560.2899999999998" as="sourcePoint"/>
                    </mxGeometry>
                </mxCell>
                <mxCell id="258" value="&lt;span style=&quot;&quot;&gt;initialPose&lt;br&gt;initialHeading&lt;br&gt;&lt;/span&gt;" style="edgeLabel;html=1;align=center;verticalAlign=middle;resizable=0;points=[];fontSize=11;labelBackgroundColor=none;fontColor=#F0F0F0;" parent="235" vertex="1" connectable="0">
                    <mxGeometry x="0.1939" y="-1" relative="1" as="geometry">
                        <mxPoint x="-12" y="-19" as="offset"/>
                    </mxGeometry>
                </mxCell>
                <mxCell id="247" value="RSA Blocks" style="text;html=1;align=center;verticalAlign=middle;resizable=0;points=[];autosize=1;strokeColor=none;fontSize=24;fontStyle=1" parent="1" vertex="1">
                    <mxGeometry x="40" y="50" width="150" height="30" as="geometry"/>
                </mxCell>
                <mxCell id="259" style="edgeStyle=orthogonalEdgeStyle;rounded=0;orthogonalLoop=1;jettySize=auto;html=1;fontSize=11;startArrow=classic;startFill=1;endArrow=none;endFill=0;" parent="1" edge="1">
                    <mxGeometry relative="1" as="geometry">
                        <mxPoint x="580" y="220.2199999999999" as="targetPoint"/>
                        <mxPoint x="660" y="220.2199999999999" as="sourcePoint"/>
                    </mxGeometry>
                </mxCell>
                <mxCell id="260" value="graph&lt;br&gt;initialPose&lt;br&gt;initialHeading&lt;br&gt;destination" style="edgeLabel;html=1;align=center;verticalAlign=middle;resizable=0;points=[];fontSize=11;labelBackgroundColor=none;" parent="259" vertex="1" connectable="0">
                    <mxGeometry x="-0.2494" y="-3" relative="1" as="geometry">
                        <mxPoint x="-30" y="-26" as="offset"/>
                    </mxGeometry>
                </mxCell>
                <mxCell id="261" style="edgeStyle=orthogonalEdgeStyle;rounded=0;orthogonalLoop=1;jettySize=auto;html=1;fontSize=11;startArrow=classic;startFill=1;endArrow=none;endFill=0;" parent="1" edge="1">
                    <mxGeometry relative="1" as="geometry">
                        <mxPoint x="220" y="219.31999999999982" as="targetPoint"/>
                        <mxPoint x="300" y="219.31999999999982" as="sourcePoint"/>
                    </mxGeometry>
                </mxCell>
                <mxCell id="262" value="stdin" style="edgeLabel;html=1;align=center;verticalAlign=middle;resizable=0;points=[];fontSize=11;labelBackgroundColor=none;fontColor=#FFFF00;" parent="261" vertex="1" connectable="0">
                    <mxGeometry x="-0.2494" y="-3" relative="1" as="geometry">
                        <mxPoint x="-30" y="-6" as="offset"/>
                    </mxGeometry>
                </mxCell>
                <mxCell id="263" value="MotorController" style="rounded=0;whiteSpace=wrap;html=1;fontColor=#99FFFF;" parent="1" vertex="1">
                    <mxGeometry x="660" y="640.4199999999998" width="120" height="40" as="geometry"/>
                </mxCell>
                <mxCell id="264" style="edgeStyle=orthogonalEdgeStyle;rounded=0;orthogonalLoop=1;jettySize=auto;html=1;fontSize=11;startArrow=classic;startFill=1;endArrow=none;endFill=0;" parent="1" edge="1">
                    <mxGeometry relative="1" as="geometry">
                        <mxPoint x="580" y="660.4199999999998" as="targetPoint"/>
                        <mxPoint x="660" y="660.4199999999998" as="sourcePoint"/>
                    </mxGeometry>
                </mxCell>
                <mxCell id="265" value="LRmotorPosition&lt;br&gt;LRmotorVelocity&lt;br&gt;&lt;span style=&quot;color: rgb(255 , 255 , 0)&quot;&gt;LRmotorPositionData&lt;/span&gt;" style="edgeLabel;html=1;align=center;verticalAlign=middle;resizable=0;points=[];fontSize=11;labelBackgroundColor=none;" parent="264" vertex="1" connectable="0">
                    <mxGeometry x="0.1955" relative="1" as="geometry">
                        <mxPoint x="-12" y="-20" as="offset"/>
                    </mxGeometry>
                </mxCell>
                <mxCell id="266" style="edgeStyle=orthogonalEdgeStyle;rounded=0;orthogonalLoop=1;jettySize=auto;html=1;fontSize=11;" parent="1" edge="1">
                    <mxGeometry relative="1" as="geometry">
                        <mxPoint x="860" y="660.4199999999998" as="targetPoint"/>
                        <mxPoint x="780" y="660.4199999999998" as="sourcePoint"/>
                    </mxGeometry>
                </mxCell>
                <mxCell id="267" value="setPosition&lt;br&gt;setVelocity" style="edgeLabel;html=1;align=center;verticalAlign=middle;resizable=0;points=[];fontSize=11;labelBackgroundColor=none;fontColor=#00FF00;" parent="266" vertex="1" connectable="0">
                    <mxGeometry x="-0.2817" y="-2" relative="1" as="geometry">
                        <mxPoint x="11" y="-22" as="offset"/>
                    </mxGeometry>
                </mxCell>
                <mxCell id="273" value="DistanceSensor" style="rounded=0;html=1;whiteSpace=wrap;fontColor=#99FFFF;" parent="1" vertex="1">
                    <mxGeometry x="300" y="640.8799999999999" width="120" height="40" as="geometry"/>
                </mxCell>
                <mxCell id="274" style="edgeStyle=orthogonalEdgeStyle;rounded=0;orthogonalLoop=1;jettySize=auto;html=1;fontSize=11;startArrow=classic;startFill=1;endArrow=none;endFill=0;" parent="1" edge="1">
                    <mxGeometry relative="1" as="geometry">
                        <mxPoint x="220" y="660.5399999999998" as="targetPoint"/>
                        <mxPoint x="300" y="660.5399999999998" as="sourcePoint"/>
                    </mxGeometry>
                </mxCell>
                <mxCell id="275" value="distanceData" style="edgeLabel;html=1;align=center;verticalAlign=middle;resizable=0;points=[];fontSize=11;labelBackgroundColor=none;fontColor=#FFFF00;" parent="274" vertex="1" connectable="0">
                    <mxGeometry x="0.1955" relative="1" as="geometry">
                        <mxPoint x="-2" y="-10" as="offset"/>
                    </mxGeometry>
                </mxCell>
                <mxCell id="276" style="edgeStyle=orthogonalEdgeStyle;rounded=0;orthogonalLoop=1;jettySize=auto;html=1;fontSize=11;" parent="1" edge="1">
                    <mxGeometry relative="1" as="geometry">
                        <mxPoint x="500" y="660.5399999999998" as="targetPoint"/>
                        <mxPoint x="420" y="660.5399999999998" as="sourcePoint"/>
                    </mxGeometry>
                </mxCell>
                <mxCell id="277" value="obstacles" style="edgeLabel;html=1;align=center;verticalAlign=middle;resizable=0;points=[];fontSize=11;labelBackgroundColor=none;" parent="276" vertex="1" connectable="0">
                    <mxGeometry x="-0.2817" y="-2" relative="1" as="geometry">
                        <mxPoint x="11" y="-11" as="offset"/>
                    </mxGeometry>
                </mxCell>
                <mxCell id="278" value="LidarSensor" style="rounded=0;html=1;whiteSpace=wrap;fontColor=#99FFFF;" parent="1" vertex="1">
                    <mxGeometry x="300" y="720.8799999999999" width="120" height="40" as="geometry"/>
                </mxCell>
                <mxCell id="279" style="edgeStyle=orthogonalEdgeStyle;rounded=0;orthogonalLoop=1;jettySize=auto;html=1;fontSize=11;startArrow=classic;startFill=1;endArrow=none;endFill=0;" parent="1" edge="1">
                    <mxGeometry relative="1" as="geometry">
                        <mxPoint x="220" y="740.5399999999997" as="targetPoint"/>
                        <mxPoint x="300" y="740.5399999999997" as="sourcePoint"/>
                    </mxGeometry>
                </mxCell>
                <mxCell id="280" value="lidarData" style="edgeLabel;html=1;align=center;verticalAlign=middle;resizable=0;points=[];fontSize=11;labelBackgroundColor=none;fontColor=#FFFF00;" parent="279" vertex="1" connectable="0">
                    <mxGeometry x="0.1955" relative="1" as="geometry">
                        <mxPoint x="-2" y="-10" as="offset"/>
                    </mxGeometry>
                </mxCell>
                <mxCell id="281" style="edgeStyle=orthogonalEdgeStyle;rounded=0;orthogonalLoop=1;jettySize=auto;html=1;fontSize=11;" parent="1" edge="1">
                    <mxGeometry relative="1" as="geometry">
                        <mxPoint x="500" y="740.5399999999997" as="targetPoint"/>
                        <mxPoint x="420" y="740.5399999999997" as="sourcePoint"/>
                    </mxGeometry>
                </mxCell>
                <mxCell id="282" value="obstacles" style="edgeLabel;html=1;align=center;verticalAlign=middle;resizable=0;points=[];fontSize=11;labelBackgroundColor=none;" parent="281" vertex="1" connectable="0">
                    <mxGeometry x="-0.2817" y="-2" relative="1" as="geometry">
                        <mxPoint x="11" y="-12" as="offset"/>
                    </mxGeometry>
                </mxCell>
                <mxCell id="298" value="&lt;h1&gt;Abbreviations&lt;/h1&gt;&lt;p&gt;HC = HardCoded&lt;/p&gt;&lt;p&gt;CV = ComputerVision&lt;/p&gt;&lt;p&gt;BFSDFS = Breadth-First Search, Depth-First Search&lt;/p&gt;&lt;p&gt;Imple = Implementation&lt;/p&gt;" style="text;html=1;strokeColor=none;fillColor=none;spacing=5;spacingTop=-20;whiteSpace=wrap;overflow=hidden;rounded=0;labelBackgroundColor=none;fontSize=11;fontColor=#F0F0F0;" parent="1" vertex="1">
                    <mxGeometry x="40" y="800" width="300" height="160" as="geometry"/>
                </mxCell>
                <mxCell id="303" value="" style="group;fontStyle=2" parent="1" vertex="1" connectable="0">
                    <mxGeometry x="40" y="120.51" width="140" height="439.49" as="geometry"/>
                </mxCell>
                <mxCell id="249" value="Legend" style="rounded=0;whiteSpace=wrap;html=1;labelBackgroundColor=none;fontSize=11;fillColor=none;labelPosition=center;verticalLabelPosition=top;align=center;verticalAlign=bottom;" parent="303" vertex="1">
                    <mxGeometry width="140" height="439.49" as="geometry"/>
                </mxCell>
                <mxCell id="250" value="Interface" style="rounded=0;whiteSpace=wrap;html=1;dashed=1;fillColor=none;" parent="303" vertex="1">
                    <mxGeometry x="20" y="59.999999999999986" width="100" height="30" as="geometry"/>
                </mxCell>
                <mxCell id="251" value="Implementation" style="rounded=0;whiteSpace=wrap;html=1;" parent="303" vertex="1">
                    <mxGeometry x="20" y="109.99999999999999" width="100" height="30" as="geometry"/>
                </mxCell>
                <mxCell id="252" value="" style="endArrow=classic;html=1;" parent="303" edge="1">
                    <mxGeometry width="50" height="50" as="geometry">
                        <mxPoint x="20" y="29.999999999999986" as="sourcePoint"/>
                        <mxPoint x="120" y="29.999999999999986" as="targetPoint"/>
                    </mxGeometry>
                </mxCell>
                <mxCell id="253" value="&lt;font style=&quot;font-size: 12px&quot;&gt;Information Flow&lt;/font&gt;" style="edgeLabel;html=1;align=center;verticalAlign=middle;resizable=0;points=[];labelBackgroundColor=none;" parent="252" vertex="1" connectable="0">
                    <mxGeometry x="0.2669" y="1" relative="1" as="geometry">
                        <mxPoint x="-13" y="-9" as="offset"/>
                    </mxGeometry>
                </mxCell>
                <mxCell id="256" value="Extra Feature" style="rounded=0;whiteSpace=wrap;html=1;fillColor=#a20025;strokeColor=#6F0000;fontColor=#ffffff;" parent="303" vertex="1">
                    <mxGeometry x="20" y="159.66000000000003" width="100" height="30" as="geometry"/>
                </mxCell>
                <mxCell id="289" value="Raw Input Data" style="text;html=1;align=center;verticalAlign=middle;resizable=0;points=[];autosize=1;strokeColor=none;fontSize=11;fontColor=#FFFF00;" parent="303" vertex="1">
                    <mxGeometry x="25" y="209.23000000000002" width="90" height="20" as="geometry"/>
                </mxCell>
                <mxCell id="297" value="Final Output Data" style="text;html=1;align=center;verticalAlign=middle;resizable=0;points=[];autosize=1;strokeColor=none;fontSize=11;fontColor=#00FF00;" parent="303" vertex="1">
                    <mxGeometry x="20" y="249.06" width="100" height="20" as="geometry"/>
                </mxCell>
                <mxCell id="299" value="&lt;font color=&quot;#99ffff&quot;&gt;Phase A Imple&lt;/font&gt;" style="rounded=0;whiteSpace=wrap;html=1;" parent="303" vertex="1">
                    <mxGeometry x="20" y="289.65999999999997" width="100" height="30" as="geometry"/>
                </mxCell>
                <mxCell id="300" value="&lt;font&gt;Phase B Imple&lt;/font&gt;" style="rounded=0;whiteSpace=wrap;html=1;fontColor=#B266FF;" parent="303" vertex="1">
                    <mxGeometry x="20" y="339.65999999999997" width="100" height="30" as="geometry"/>
                </mxCell>
                <mxCell id="301" value="&lt;font&gt;Phase C Imple&lt;/font&gt;" style="rounded=0;whiteSpace=wrap;html=1;fontColor=#66FF66;" parent="303" vertex="1">
                    <mxGeometry x="20" y="389.65999999999997" width="100" height="30" as="geometry"/>
                </mxCell>
                <mxCell id="326" style="edgeStyle=orthogonalEdgeStyle;rounded=0;orthogonalLoop=1;jettySize=auto;html=1;" parent="1" target="98" edge="1">
                    <mxGeometry relative="1" as="geometry">
                        <mxPoint x="-720" y="560.4199999999998" as="sourcePoint"/>
                        <mxPoint x="-720.17" y="641.3599999999998" as="targetPoint"/>
                    </mxGeometry>
                </mxCell>
                <mxCell id="327" value="LRmotorPosition&lt;br&gt;LRmotorVelocity" style="edgeLabel;html=1;align=center;verticalAlign=middle;resizable=0;points=[];labelBackgroundColor=none;" parent="326" vertex="1" connectable="0">
                    <mxGeometry x="-0.72" y="1" relative="1" as="geometry">
                        <mxPoint x="49" y="19" as="offset"/>
                    </mxGeometry>
                </mxCell>
                <mxCell id="328" style="edgeStyle=orthogonalEdgeStyle;rounded=0;orthogonalLoop=1;jettySize=auto;html=1;fontSize=11;startArrow=classic;startFill=1;endArrow=none;endFill=0;" parent="1" edge="1">
                    <mxGeometry relative="1" as="geometry">
                        <mxPoint x="-740" y="759.36" as="targetPoint"/>
                        <mxPoint x="-740" y="679.7800000000001" as="sourcePoint"/>
                    </mxGeometry>
                </mxCell>
                <mxCell id="329" value="LRmotorPositionData" style="edgeLabel;html=1;align=center;verticalAlign=middle;resizable=0;points=[];fontSize=11;labelBackgroundColor=none;fontColor=#FFFF00;" parent="328" vertex="1" connectable="0">
                    <mxGeometry x="0.1955" relative="1" as="geometry">
                        <mxPoint x="-60" y="-27" as="offset"/>
                    </mxGeometry>
                </mxCell>
                <mxCell id="330" style="edgeStyle=orthogonalEdgeStyle;rounded=0;orthogonalLoop=1;jettySize=auto;html=1;fontSize=11;startArrow=classic;startFill=1;endArrow=none;endFill=0;" parent="1" edge="1">
                    <mxGeometry relative="1" as="geometry">
                        <mxPoint x="-1010" y="760" as="targetPoint"/>
                        <mxPoint x="-780" y="540.4285714285713" as="sourcePoint"/>
                        <Array as="points">
                            <mxPoint x="-860" y="540"/>
                            <mxPoint x="-860" y="760"/>
                        </Array>
                    </mxGeometry>
                </mxCell>
                <mxCell id="331" value="cameraData" style="edgeLabel;html=1;align=center;verticalAlign=middle;resizable=0;points=[];fontSize=11;labelBackgroundColor=none;fontColor=#FFFF00;" parent="330" vertex="1" connectable="0">
                    <mxGeometry x="0.1955" relative="1" as="geometry">
                        <mxPoint x="40" y="-179" as="offset"/>
                    </mxGeometry>
                </mxCell>
                <mxCell id="305" value="Legend" style="rounded=0;whiteSpace=wrap;html=1;labelBackgroundColor=none;fontSize=11;fillColor=none;labelPosition=center;verticalLabelPosition=top;align=center;verticalAlign=bottom;" parent="1" vertex="1">
                    <mxGeometry x="-1580" y="120.51" width="140" height="489.49" as="geometry"/>
                </mxCell>
                <mxCell id="307" value="Module" style="rounded=0;whiteSpace=wrap;html=1;" parent="1" vertex="1">
                    <mxGeometry x="-1560" y="230" width="100" height="30" as="geometry"/>
                </mxCell>
                <mxCell id="308" value="" style="endArrow=classic;html=1;" parent="1" edge="1">
                    <mxGeometry x="-1580" y="120.50999999999999" width="50" height="50" as="geometry">
                        <mxPoint x="-1560" y="150.51" as="sourcePoint"/>
                        <mxPoint x="-1460" y="150.51" as="targetPoint"/>
                    </mxGeometry>
                </mxCell>
                <mxCell id="309" value="&lt;font style=&quot;font-size: 12px&quot;&gt;Information Flow&lt;/font&gt;" style="edgeLabel;html=1;align=center;verticalAlign=middle;resizable=0;points=[];labelBackgroundColor=none;" parent="308" vertex="1" connectable="0">
                    <mxGeometry x="0.2669" y="1" relative="1" as="geometry">
                        <mxPoint x="-13" y="-9" as="offset"/>
                    </mxGeometry>
                </mxCell>
                <mxCell id="310" value="Extra Feature" style="rounded=0;whiteSpace=wrap;html=1;fillColor=#a20025;strokeColor=#6F0000;fontColor=#ffffff;" parent="1" vertex="1">
                    <mxGeometry x="-1560" y="279.66" width="100" height="30" as="geometry"/>
                </mxCell>
                <mxCell id="311" value="Input Data" style="text;html=1;align=center;verticalAlign=middle;resizable=0;points=[];autosize=1;strokeColor=none;fontSize=11;fontColor=#FFFF00;" parent="1" vertex="1">
                    <mxGeometry x="-1545" y="329.23" width="70" height="20" as="geometry"/>
                </mxCell>
                <mxCell id="312" value="Output Data" style="text;html=1;align=center;verticalAlign=middle;resizable=0;points=[];autosize=1;strokeColor=none;fontSize=11;fontColor=#00FF00;" parent="1" vertex="1">
                    <mxGeometry x="-1545" y="369.06" width="70" height="20" as="geometry"/>
                </mxCell>
                <mxCell id="313" value="&lt;font color=&quot;#99ffff&quot;&gt;Phase A Imple&lt;/font&gt;" style="rounded=0;whiteSpace=wrap;html=1;" parent="1" vertex="1">
                    <mxGeometry x="-1560" y="409.65999999999997" width="100" height="30" as="geometry"/>
                </mxCell>
                <mxCell id="314" value="&lt;font&gt;Phase B Imple&lt;/font&gt;" style="rounded=0;whiteSpace=wrap;html=1;fontColor=#B266FF;" parent="1" vertex="1">
                    <mxGeometry x="-1560" y="459.65999999999997" width="100" height="30" as="geometry"/>
                </mxCell>
                <mxCell id="315" value="&lt;font&gt;Phase C Imple&lt;/font&gt;" style="rounded=0;whiteSpace=wrap;html=1;fontColor=#66FF66;" parent="1" vertex="1">
                    <mxGeometry x="-1560" y="509.65999999999997" width="100" height="30" as="geometry"/>
                </mxCell>
                <mxCell id="332" value="&lt;u&gt;Module Group&lt;/u&gt;" style="rounded=0;whiteSpace=wrap;html=1;fillColor=none;" parent="1" vertex="1">
                    <mxGeometry x="-1560" y="180.85" width="100" height="30" as="geometry"/>
                </mxCell>
                <mxCell id="334" value="" style="endArrow=classic;html=1;labelBackgroundColor=none;fontSize=11;fontColor=#F0F0F0;" parent="1" target="204" edge="1">
                    <mxGeometry width="50" height="50" relative="1" as="geometry">
                        <mxPoint x="-720.29" y="100.92999999999995" as="sourcePoint"/>
                        <mxPoint x="-720.29" y="160.51" as="targetPoint"/>
                    </mxGeometry>
                </mxCell>
                <mxCell id="336" value="stdin" style="edgeLabel;html=1;align=center;verticalAlign=middle;resizable=0;points=[];fontSize=11;fontColor=#FFFF00;labelBackgroundColor=none;" parent="334" vertex="1" connectable="0">
                    <mxGeometry x="-0.6531" y="-3" relative="1" as="geometry">
                        <mxPoint x="23" y="19" as="offset"/>
                    </mxGeometry>
                </mxCell>
                <mxCell id="340" style="edgeStyle=orthogonalEdgeStyle;rounded=0;orthogonalLoop=1;jettySize=auto;html=1;fontSize=11;" parent="1" edge="1">
                    <mxGeometry relative="1" as="geometry">
                        <mxPoint x="500" y="220.8299999999998" as="targetPoint"/>
                        <mxPoint x="420" y="220.8299999999998" as="sourcePoint"/>
                    </mxGeometry>
                </mxCell>
                <mxCell id="341" value="motion" style="edgeLabel;html=1;align=center;verticalAlign=middle;resizable=0;points=[];fontSize=11;labelBackgroundColor=none;" parent="340" vertex="1" connectable="0">
                    <mxGeometry x="-0.2305" y="3" relative="1" as="geometry">
                        <mxPoint x="29" y="-7" as="offset"/>
                    </mxGeometry>
                </mxCell>
                <mxCell id="345" value="External" style="rounded=0;whiteSpace=wrap;html=1;fontStyle=1" parent="1" vertex="1">
                    <mxGeometry x="-1560" y="559.49" width="100" height="30" as="geometry"/>
                </mxCell>
                <mxCell id="346" value="&lt;font color=&quot;#99ffff&quot;&gt;HCDeliberator&lt;/font&gt;" style="rounded=0;whiteSpace=wrap;html=1;" parent="1" vertex="1">
                    <mxGeometry x="300" y="139.05999999999995" width="120" height="40" as="geometry"/>
                </mxCell>
                <mxCell id="347" style="edgeStyle=orthogonalEdgeStyle;rounded=0;orthogonalLoop=1;jettySize=auto;html=1;fontSize=11;startArrow=classic;startFill=1;endArrow=none;endFill=0;" parent="1" edge="1">
                    <mxGeometry relative="1" as="geometry">
                        <mxPoint x="580" y="320.0299999999999" as="targetPoint"/>
                        <mxPoint x="660" y="320.0299999999999" as="sourcePoint"/>
                    </mxGeometry>
                </mxCell>
                <mxCell id="348" value="pathSequence" style="edgeLabel;html=1;align=center;verticalAlign=middle;resizable=0;points=[];fontSize=11;labelBackgroundColor=none;fontColor=#F0F0F0;" parent="347" vertex="1" connectable="0">
                    <mxGeometry x="0.2914" relative="1" as="geometry">
                        <mxPoint x="2" y="-9" as="offset"/>
                    </mxGeometry>
                </mxCell>
                <mxCell id="354" value="EPuckMotionPlanner" style="rounded=0;whiteSpace=wrap;html=1;fontColor=#99FFFF;" parent="1" vertex="1">
                    <mxGeometry x="660" y="540.63" width="120" height="40" as="geometry"/>
                </mxCell>
                <mxCell id="355" style="edgeStyle=orthogonalEdgeStyle;rounded=0;orthogonalLoop=1;jettySize=auto;html=1;fontSize=11;startArrow=classic;startFill=1;endArrow=none;endFill=0;" parent="1" edge="1">
                    <mxGeometry relative="1" as="geometry">
                        <mxPoint x="560" y="560.29" as="targetPoint"/>
                        <mxPoint x="640" y="560.29" as="sourcePoint"/>
                    </mxGeometry>
                </mxCell>
                <mxCell id="356" value="angle&lt;br&gt;distance&lt;br&gt;linearVelocity&lt;br&gt;angularVelocity" style="edgeLabel;html=1;align=center;verticalAlign=middle;resizable=0;points=[];fontSize=11;labelBackgroundColor=none;" parent="355" vertex="1" connectable="0">
                    <mxGeometry x="0.1955" relative="1" as="geometry">
                        <mxPoint x="-2" y="-30" as="offset"/>
                    </mxGeometry>
                </mxCell>
                <mxCell id="360" value="EPuckMotionPlanner" style="rounded=0;whiteSpace=wrap;html=1;fontColor=#99FFFF;" parent="1" vertex="1">
                    <mxGeometry x="-780" y="520.17" width="120" height="40" as="geometry"/>
                </mxCell>
                <mxCell id="364" value="&lt;span&gt;Utils&lt;/span&gt;" style="rounded=0;whiteSpace=wrap;html=1;fillColor=none;labelPosition=center;verticalLabelPosition=middle;align=center;verticalAlign=top;fontStyle=4" parent="1" vertex="1">
                    <mxGeometry x="-560" y="520.08" width="160" height="199.92" as="geometry"/>
                </mxCell>
                <mxCell id="368" value="&lt;font color=&quot;#99ffff&quot;&gt;PathSequencer&lt;/font&gt;" style="rounded=0;whiteSpace=wrap;html=1;" parent="1" vertex="1">
                    <mxGeometry x="660" y="300.36999999999995" width="120" height="40" as="geometry"/>
                </mxCell>
                <mxCell id="369" style="edgeStyle=orthogonalEdgeStyle;rounded=0;orthogonalLoop=1;jettySize=auto;html=1;fontSize=11;startArrow=classic;startFill=1;endArrow=none;endFill=0;" parent="1" edge="1">
                    <mxGeometry relative="1" as="geometry">
                        <mxPoint x="220" y="158.71999999999986" as="targetPoint"/>
                        <mxPoint x="300" y="158.71999999999986" as="sourcePoint"/>
                    </mxGeometry>
                </mxCell>
                <mxCell id="370" value="motionPlanFile" style="edgeLabel;html=1;align=center;verticalAlign=middle;resizable=0;points=[];fontSize=11;labelBackgroundColor=none;fontColor=#FFFF00;" parent="369" vertex="1" connectable="0">
                    <mxGeometry x="0.2914" relative="1" as="geometry">
                        <mxPoint x="-8" y="-10" as="offset"/>
                    </mxGeometry>
                </mxCell>
                <mxCell id="371" style="edgeStyle=orthogonalEdgeStyle;rounded=0;orthogonalLoop=1;jettySize=auto;html=1;fontSize=11;startArrow=classic;startFill=1;endArrow=none;endFill=0;" parent="1" edge="1">
                    <mxGeometry relative="1" as="geometry">
                        <mxPoint x="420" y="159.22999999999985" as="targetPoint"/>
                        <mxPoint x="500" y="159.22999999999985" as="sourcePoint"/>
                    </mxGeometry>
                </mxCell>
                <mxCell id="372" value="pathSequence" style="edgeLabel;html=1;align=center;verticalAlign=middle;resizable=0;points=[];fontSize=11;labelBackgroundColor=none;fontColor=#F0F0F0;" parent="371" vertex="1" connectable="0">
                    <mxGeometry x="0.2914" relative="1" as="geometry">
                        <mxPoint x="32" y="-10" as="offset"/>
                    </mxGeometry>
                </mxCell>
                <mxCell id="373" style="edgeStyle=orthogonalEdgeStyle;rounded=0;orthogonalLoop=1;jettySize=auto;html=1;fontSize=11;startArrow=classic;startFill=1;endArrow=none;endFill=0;" parent="1" edge="1">
                    <mxGeometry relative="1" as="geometry">
                        <mxPoint x="780" y="320.17999999999995" as="targetPoint"/>
                        <mxPoint x="860" y="320.17999999999995" as="sourcePoint"/>
                    </mxGeometry>
                </mxCell>
                <mxCell id="374" value="motion" style="edgeLabel;html=1;align=center;verticalAlign=middle;resizable=0;points=[];fontSize=11;labelBackgroundColor=none;" parent="373" vertex="1" connectable="0">
                    <mxGeometry x="0.3148" relative="1" as="geometry">
                        <mxPoint x="12" y="-10" as="offset"/>
                    </mxGeometry>
                </mxCell>
                <mxCell id="377" value="DistanceSensor" style="rounded=0;html=1;whiteSpace=wrap;fontColor=#99FFFF;" parent="1" vertex="1">
                    <mxGeometry x="-1160" y="640.4199999999998" width="120" height="40" as="geometry"/>
                </mxCell>
                <mxCell id="378" style="edgeStyle=orthogonalEdgeStyle;rounded=0;orthogonalLoop=1;jettySize=auto;html=1;fontSize=11;startArrow=classic;startFill=1;endArrow=none;endFill=0;" parent="1" edge="1">
                    <mxGeometry relative="1" as="geometry">
                        <mxPoint x="-1100.34" y="760.42" as="targetPoint"/>
                        <mxPoint x="-1100.34" y="680.42" as="sourcePoint"/>
                    </mxGeometry>
                </mxCell>
                <mxCell id="379" value="distanceData" style="edgeLabel;html=1;align=center;verticalAlign=middle;resizable=0;points=[];fontSize=11;labelBackgroundColor=none;fontColor=#FFFF00;" parent="378" vertex="1" connectable="0">
                    <mxGeometry x="0.1955" relative="1" as="geometry">
                        <mxPoint x="-40" y="-28" as="offset"/>
                    </mxGeometry>
                </mxCell>
                <mxCell id="380" style="edgeStyle=orthogonalEdgeStyle;rounded=0;orthogonalLoop=1;jettySize=auto;html=1;fontSize=11;" parent="1" edge="1">
                    <mxGeometry relative="1" as="geometry">
                        <mxPoint x="-1020" y="599.1999999999999" as="targetPoint"/>
                        <mxPoint x="-1100" y="599.1999999999999" as="sourcePoint"/>
                    </mxGeometry>
                </mxCell>
                <mxCell id="381" value="obstacles" style="edgeLabel;html=1;align=center;verticalAlign=middle;resizable=0;points=[];fontSize=11;labelBackgroundColor=none;" parent="380" vertex="1" connectable="0">
                    <mxGeometry x="-0.2817" y="-2" relative="1" as="geometry">
                        <mxPoint x="11" y="-11" as="offset"/>
                    </mxGeometry>
                </mxCell>
                <mxCell id="385" value="Get Map as String" style="ellipse;whiteSpace=wrap;html=1;" parent="1" vertex="1">
                    <mxGeometry x="-522" y="1420" width="120" height="80" as="geometry"/>
                </mxCell>
                <mxCell id="426" style="edgeStyle=orthogonalEdgeStyle;rounded=0;orthogonalLoop=1;jettySize=auto;html=1;" parent="1" source="389" target="391" edge="1">
                    <mxGeometry relative="1" as="geometry"/>
                </mxCell>
                <mxCell id="389" value="Get destination" style="ellipse;whiteSpace=wrap;html=1;" parent="1" vertex="1">
                    <mxGeometry x="-522" y="1520" width="120" height="80" as="geometry"/>
                </mxCell>
                <mxCell id="390" value="Get locale" style="ellipse;whiteSpace=wrap;html=1;" parent="1" vertex="1">
                    <mxGeometry x="-522" y="1620" width="120" height="80" as="geometry"/>
                </mxCell>
                <mxCell id="396" style="edgeStyle=orthogonalEdgeStyle;rounded=0;orthogonalLoop=1;jettySize=auto;html=1;" parent="1" source="391" target="395" edge="1">
                    <mxGeometry relative="1" as="geometry"/>
                </mxCell>
                <mxCell id="391" value="Plan path" style="ellipse;whiteSpace=wrap;html=1;" parent="1" vertex="1">
                    <mxGeometry x="-682" y="1520" width="120" height="80" as="geometry"/>
                </mxCell>
                <mxCell id="398" style="edgeStyle=orthogonalEdgeStyle;rounded=0;orthogonalLoop=1;jettySize=auto;html=1;" parent="1" source="395" target="397" edge="1">
                    <mxGeometry relative="1" as="geometry"/>
                </mxCell>
                <mxCell id="395" value="Sequence path" style="ellipse;whiteSpace=wrap;html=1;" parent="1" vertex="1">
                    <mxGeometry x="-682" y="1314" width="120" height="80" as="geometry"/>
                </mxCell>
                <mxCell id="400" style="edgeStyle=orthogonalEdgeStyle;rounded=0;orthogonalLoop=1;jettySize=auto;html=1;" parent="1" source="397" target="399" edge="1">
                    <mxGeometry relative="1" as="geometry"/>
                </mxCell>
                <mxCell id="397" value="Compute trajectory" style="ellipse;whiteSpace=wrap;html=1;" parent="1" vertex="1">
                    <mxGeometry x="-522" y="1314" width="120" height="80" as="geometry"/>
                </mxCell>
                <mxCell id="402" style="edgeStyle=orthogonalEdgeStyle;rounded=0;orthogonalLoop=1;jettySize=auto;html=1;" parent="1" source="399" target="401" edge="1">
                    <mxGeometry relative="1" as="geometry"/>
                </mxCell>
                <mxCell id="399" value="Compute motor setpoints" style="ellipse;whiteSpace=wrap;html=1;" parent="1" vertex="1">
                    <mxGeometry x="-362" y="1314" width="120" height="80" as="geometry"/>
                </mxCell>
                <mxCell id="404" style="edgeStyle=orthogonalEdgeStyle;rounded=0;orthogonalLoop=1;jettySize=auto;html=1;" parent="1" source="401" target="403" edge="1">
                    <mxGeometry relative="1" as="geometry"/>
                </mxCell>
                <mxCell id="401" value="Begin motion" style="ellipse;whiteSpace=wrap;html=1;" parent="1" vertex="1">
                    <mxGeometry x="-202" y="1314" width="120" height="80" as="geometry"/>
                </mxCell>
                <mxCell id="431" style="edgeStyle=orthogonalEdgeStyle;rounded=0;orthogonalLoop=1;jettySize=auto;html=1;" parent="1" source="403" target="415" edge="1">
                    <mxGeometry relative="1" as="geometry">
                        <Array as="points">
                            <mxPoint x="20" y="1280"/>
                            <mxPoint x="-900" y="1280"/>
                        </Array>
                    </mxGeometry>
                </mxCell>
                <mxCell id="432" style="edgeStyle=orthogonalEdgeStyle;rounded=0;orthogonalLoop=1;jettySize=auto;html=1;" parent="1" source="448" target="385" edge="1">
                    <mxGeometry relative="1" as="geometry">
                        <Array as="points">
                            <mxPoint x="-142" y="1460"/>
                        </Array>
                    </mxGeometry>
                </mxCell>
                <mxCell id="433" style="edgeStyle=orthogonalEdgeStyle;rounded=0;orthogonalLoop=1;jettySize=auto;html=1;" parent="1" source="448" target="389" edge="1">
                    <mxGeometry relative="1" as="geometry">
                        <Array as="points"/>
                    </mxGeometry>
                </mxCell>
                <mxCell id="434" style="edgeStyle=orthogonalEdgeStyle;rounded=0;orthogonalLoop=1;jettySize=auto;html=1;" parent="1" source="448" target="390" edge="1">
                    <mxGeometry relative="1" as="geometry">
                        <Array as="points">
                            <mxPoint x="-142" y="1660"/>
                        </Array>
                    </mxGeometry>
                </mxCell>
                <mxCell id="449" style="edgeStyle=orthogonalEdgeStyle;rounded=0;orthogonalLoop=1;jettySize=auto;html=1;" parent="1" source="403" target="448" edge="1">
                    <mxGeometry relative="1" as="geometry">
                        <Array as="points">
                            <mxPoint x="20" y="1560"/>
                        </Array>
                    </mxGeometry>
                </mxCell>
                <mxCell id="403" value="End motion" style="ellipse;whiteSpace=wrap;html=1;" parent="1" vertex="1">
                    <mxGeometry x="-40" y="1314" width="120" height="80" as="geometry"/>
                </mxCell>
                <mxCell id="430" style="edgeStyle=orthogonalEdgeStyle;rounded=0;orthogonalLoop=1;jettySize=auto;html=1;" parent="1" source="415" target="395" edge="1">
                    <mxGeometry relative="1" as="geometry"/>
                </mxCell>
                <mxCell id="444" style="edgeStyle=orthogonalEdgeStyle;rounded=0;orthogonalLoop=1;jettySize=auto;html=1;" parent="1" source="415" target="391" edge="1">
                    <mxGeometry relative="1" as="geometry">
                        <Array as="points">
                            <mxPoint x="-900" y="1560"/>
                        </Array>
                    </mxGeometry>
                </mxCell>
                <mxCell id="415" value="Get teleoperation command" style="ellipse;whiteSpace=wrap;html=1;" parent="1" vertex="1">
                    <mxGeometry x="-960" y="1314" width="120" height="80" as="geometry"/>
                </mxCell>
                <mxCell id="418" style="edgeStyle=orthogonalEdgeStyle;rounded=0;orthogonalLoop=1;jettySize=auto;html=1;fontSize=11;" parent="1" edge="1">
                    <mxGeometry relative="1" as="geometry">
                        <mxPoint x="520" y="359.39" as="targetPoint"/>
                        <mxPoint x="440" y="359.39" as="sourcePoint"/>
                    </mxGeometry>
                </mxCell>
                <mxCell id="419" value="currentPose&lt;br&gt;currentHeading&lt;br&gt;destination&lt;br&gt;map" style="edgeLabel;html=1;align=center;verticalAlign=middle;resizable=0;points=[];fontSize=11;labelBackgroundColor=none;" parent="418" vertex="1" connectable="0">
                    <mxGeometry x="0.2352" y="3" relative="1" as="geometry">
                        <mxPoint x="1" y="-27" as="offset"/>
                    </mxGeometry>
                </mxCell>
                <mxCell id="420" value="Deliberator, Localiser, Mapper" style="rounded=0;whiteSpace=wrap;html=1;dashed=1;fillColor=none;labelPosition=center;verticalLabelPosition=top;align=center;verticalAlign=bottom;fontStyle=2" parent="1" vertex="1">
                    <mxGeometry x="280" y="319.82" width="160" height="80.46" as="geometry"/>
                </mxCell>
                <mxCell id="435" value="If autonomous mode" style="text;html=1;align=center;verticalAlign=middle;resizable=0;points=[];autosize=1;strokeColor=none;" parent="1" vertex="1">
                    <mxGeometry x="25" y="1400" width="120" height="20" as="geometry"/>
                </mxCell>
                <mxCell id="436" value="If teleoperation mode" style="text;html=1;align=center;verticalAlign=middle;resizable=0;points=[];autosize=1;strokeColor=none;" parent="1" vertex="1">
                    <mxGeometry x="20" y="1290" width="130" height="20" as="geometry"/>
                </mxCell>
                <mxCell id="438" style="edgeStyle=orthogonalEdgeStyle;rounded=0;orthogonalLoop=1;jettySize=auto;html=1;" parent="1" source="437" target="415" edge="1">
                    <mxGeometry relative="1" as="geometry"/>
                </mxCell>
                <mxCell id="437" value="Entry point" style="ellipse;whiteSpace=wrap;html=1;fillColor=#a20025;strokeColor=#6F0000;fontColor=#ffffff;" parent="1" vertex="1">
                    <mxGeometry x="-1120" y="1314" width="120" height="80" as="geometry"/>
                </mxCell>
                <mxCell id="441" value="" style="endArrow=classic;html=1;" parent="1" source="390" target="391" edge="1">
                    <mxGeometry width="50" height="50" relative="1" as="geometry">
                        <mxPoint x="-610" y="1670" as="sourcePoint"/>
                        <mxPoint x="-560" y="1620" as="targetPoint"/>
                    </mxGeometry>
                </mxCell>
                <mxCell id="442" value="" style="endArrow=classic;html=1;" parent="1" source="385" target="391" edge="1">
                    <mxGeometry width="50" height="50" relative="1" as="geometry">
                        <mxPoint x="-567.5422322484133" y="1695.282354844742" as="sourcePoint"/>
                        <mxPoint x="-639.9977677515944" y="1649.9976451552536" as="targetPoint"/>
                    </mxGeometry>
                </mxCell>
                <mxCell id="445" value="If autonomous mode" style="text;html=1;align=center;verticalAlign=middle;resizable=0;points=[];autosize=1;strokeColor=none;" parent="1" vertex="1">
                    <mxGeometry x="-890" y="1400" width="120" height="20" as="geometry"/>
                </mxCell>
                <mxCell id="446" value="If teleoperation mode" style="text;html=1;align=center;verticalAlign=middle;resizable=0;points=[];autosize=1;strokeColor=none;" parent="1" vertex="1">
                    <mxGeometry x="-840" y="1330" width="130" height="20" as="geometry"/>
                </mxCell>
                <mxCell id="447" value="Control Loop" style="text;html=1;align=center;verticalAlign=middle;resizable=0;points=[];autosize=1;strokeColor=none;fontSize=24;fontStyle=1" parent="1" vertex="1">
                    <mxGeometry x="-1120" y="1210" width="170" height="30" as="geometry"/>
                </mxCell>
                <mxCell id="448" value="Snap world image" style="ellipse;whiteSpace=wrap;html=1;" parent="1" vertex="1">
                    <mxGeometry x="-202" y="1520" width="120" height="80" as="geometry"/>
                </mxCell>
                <mxCell id="450" value="Camera" style="rounded=0;html=1;whiteSpace=wrap;fontColor=#ffffff;fillColor=#a20025;strokeColor=#6F0000;" parent="1" vertex="1">
                    <mxGeometry x="660" y="719.9999999999999" width="120" height="40" as="geometry"/>
                </mxCell>
                <mxCell id="451" style="edgeStyle=orthogonalEdgeStyle;rounded=0;orthogonalLoop=1;jettySize=auto;html=1;fontSize=11;startArrow=classic;startFill=1;endArrow=none;endFill=0;" parent="1" edge="1">
                    <mxGeometry relative="1" as="geometry">
                        <mxPoint x="580" y="739.6599999999997" as="targetPoint"/>
                        <mxPoint x="660" y="739.6599999999997" as="sourcePoint"/>
                    </mxGeometry>
                </mxCell>
                <mxCell id="452" value="imageData" style="edgeLabel;html=1;align=center;verticalAlign=middle;resizable=0;points=[];fontSize=11;labelBackgroundColor=none;fontColor=#FFFF00;" parent="451" vertex="1" connectable="0">
                    <mxGeometry x="0.1955" relative="1" as="geometry">
                        <mxPoint x="-2" y="-10" as="offset"/>
                    </mxGeometry>
                </mxCell>
                <mxCell id="453" style="edgeStyle=orthogonalEdgeStyle;rounded=0;orthogonalLoop=1;jettySize=auto;html=1;fontSize=11;" parent="1" edge="1">
                    <mxGeometry relative="1" as="geometry">
                        <mxPoint x="860" y="739.6599999999997" as="targetPoint"/>
                        <mxPoint x="780" y="739.6599999999997" as="sourcePoint"/>
                    </mxGeometry>
                </mxCell>
                <mxCell id="454" value="image" style="edgeLabel;html=1;align=center;verticalAlign=middle;resizable=0;points=[];fontSize=11;labelBackgroundColor=none;" parent="453" vertex="1" connectable="0">
                    <mxGeometry x="-0.2817" y="-2" relative="1" as="geometry">
                        <mxPoint x="11" y="-12" as="offset"/>
                    </mxGeometry>
                </mxCell>
            </root>
        </mxGraphModel>
    </diagram>
</mxfile>